<svg xmlns="http://www.w3.org/2000/svg" fill="none" viewBox="0 0 48 48" id="Close--Streamline-Ionic-Filled" height="48" width="48"><desc>Close Streamline Icon: https://streamlinehq.com</desc><path fill="#000000" d="M29.868 24.0002 46.2923 7.5756c0.7794 -0.778 1.2179 -1.834 1.2188 -2.9353 0.0012 -1.1016 -0.4355 -2.1583 -1.2136 -2.9376 -0.7782 -0.7795 -1.8342 -1.2181 -2.9356 -1.219 -1.1013 -0.0009 -2.158 0.4356 -2.9374 1.2138L24 18.1219 7.5756 1.6975C6.7961 0.918 5.7388 0.48 4.6366 0.48c-1.1027 0 -2.1597 0.438 -2.9393 1.2175C0.9178 2.4769 0.48 3.5341 0.48 4.6366c0 1.1024 0.4378 2.1595 1.2173 2.939l16.4246 16.4246L1.6973 40.4245C0.9178 41.2039 0.48 42.2611 0.48 43.3636c0 1.1024 0.4378 2.1597 1.2173 2.9392 0.7796 0.7794 1.8366 1.2172 2.9393 1.2172 1.1022 0 2.1595 -0.4378 2.939 -1.2172L24 29.8783l16.4245 16.4245c0.7794 0.7794 1.8367 1.2172 2.9391 1.2172 1.1023 0 2.1595 -0.4378 2.939 -1.2172 0.7794 -0.7795 1.2174 -1.8368 1.2174 -2.9392 0 -1.1025 -0.438 -2.1597 -1.2174 -2.9391L29.8679 24.0002Z" stroke-width="1"></path></svg>
